<?xml version="1.0" encoding="UTF-8"?>
<svg width="17px" height="15px" viewBox="0 0 17 15" version="1.1" xmlns="http://www.w3.org/2000/svg" xmlns:xlink="http://www.w3.org/1999/xlink">
    <!-- Generator: Sketch 55.2 (78181) - https://sketchapp.com -->
    <title>Loves</title>
    <desc>Created with Sketch.</desc>
    <g id="Desktop" stroke="none" stroke-width="1" fill="none" fill-rule="evenodd">
        <g id="Twitter-Desktop" transform="translate(-687.000000, -1417.000000)" stroke="#748592" stroke-width="1.5">
            <g id="Middle" transform="translate(455.000000, 492.000000)">
                <g id="Tweet-3" transform="translate(15.000000, 701.000000)">
                    <g id="Actions" transform="translate(59.000000, 224.000000)">
                        <g id="Loves" transform="translate(159.000000, 0.000000)">
                            <path d="M8,14 C4.93454516,11.7467726 3.01574994,10.1280617 2.24361432,9.14386752 C0.332794819,6.70826233 0.584923378,4.66030649 1,3 C1.22382854,2.10468583 1.74624708,1.44231302 3,1 C4.25375292,0.557686977 5.62050949,0.815286583 6,1 C6.4246264,1.20668289 7.07277455,1.8503211 7.94444444,2.93091465 C8.81611434,1.8503211 9.46426249,1.20668289 9.88888889,1 C10.2683794,0.815286583 11.635136,0.557686977 12.8888889,1 C14.1426418,1.44231302 14.6650603,2.10468583 14.8888889,3 C15.3050433,4.6646176 15.5522024,6.71890029 13.6303663,9.16284807 C12.8591084,10.1436361 10.9823197,11.7560201 8,14 Z" id="Icon:--Loves"></path>
                        </g>
                    </g>
                </g>
            </g>
        </g>
    </g>
</svg>