<?xml version="1.0" encoding="UTF-8"?>
<svg width="13px" height="16px" viewBox="0 0 13 16" version="1.1" xmlns="http://www.w3.org/2000/svg" xmlns:xlink="http://www.w3.org/1999/xlink">
    <!-- Generator: Sketch 55.2 (78181) - https://sketchapp.com -->
    <title>Icon: Followers</title>
    <desc>Created with Sketch.</desc>
    <g id="Desktop" stroke="none" stroke-width="1" fill="none" fill-rule="evenodd">
        <g id="Twitter-Desktop" transform="translate(-177.000000, -806.000000)" stroke="#657888">
            <g id="Left-Column" transform="translate(174.000000, 302.000000)">
                <g id="Followers" transform="translate(3.000000, 504.000000)">
                    <g id="Icon:-Followers">
                        <path d="M9.25,3.8201 C9.25,6.0951 8.467,7.1901 6.25,7.1901 C4.033,7.1901 3.25,6.0451 3.25,3.8201 C3.25,1.9151 4.666,0.5001 6.25,0.5001 C7.834,0.5001 9.25,1.9151 9.25,3.8201 Z" id="Stroke-1"></path>
                        <path d="M1.8579,14.74 C0.8999,14.74 0.2429,13.763 0.5969,12.868 C1.4339,10.752 3.6499,9.24 6.2499,9.24 C8.8509,9.24 11.0659,10.752 11.9029,12.868 C12.2569,13.763 11.5999,14.74 10.6419,14.74 L1.8579,14.74 Z" id="Stroke-3"></path>
                    </g>
                </g>
            </g>
        </g>
    </g>
</svg>