<?xml version="1.0" encoding="UTF-8"?>
<svg width="20px" height="19px" viewBox="0 0 20 19" version="1.1" xmlns="http://www.w3.org/2000/svg" xmlns:xlink="http://www.w3.org/1999/xlink">
    <!-- Generator: Sketch 55.2 (78181) - https://sketchapp.com -->
    <title>Icon: Home</title>
    <desc>Created with Sketch.</desc>
    <g id="Desktop" stroke="none" stroke-width="1" fill="none" fill-rule="evenodd">
        <g id="Twitter-Desktop" transform="translate(-176.000000, -13.000000)" fill="#667580" fill-rule="nonzero">
            <g id="Header">
                <g id="Navigation" transform="translate(176.000000, 13.000000)">
                    <g id="Home">
                        <path d="M9.88587182,11.3873115 C10.9904413,11.3873115 11.8858718,10.491881 11.8858718,9.38731148 C11.8858718,8.28274199 10.9904413,7.38731148 9.88587182,7.38731148 C8.78130232,7.38731148 7.88587182,8.28274199 7.88587182,9.38731148 C7.88587182,10.491881 8.78130232,11.3873115 9.88587182,11.3873115 Z M3.17931344,6.0858893 L4.84713359,16.0928102 C4.94758942,16.6955452 5.46907705,17.1373115 6.08012599,17.1373115 L13.6916176,17.1373115 C14.3026666,17.1373115 14.8241542,16.6955452 14.92461,16.0928102 L16.6163529,5.94235333 L10.3647573,1.77462297 L3.17931344,6.0858893 Z M1.79686741,6.91535692 L0.771743633,7.53043118 L0,6.24419179 L10.4069863,0 L19.801897,6.26327376 L18.9698467,7.51134921 L17.9849744,6.85476771 L16.4042009,16.3394087 C16.1831981,17.6654256 15.0359253,18.6373115 13.6916176,18.6373115 L6.08012599,18.6373115 C4.73581832,18.6373115 3.58854552,17.6654256 3.3675427,16.3394087 L1.79686741,6.91535692 Z M9.88587182,12.8873115 C7.95287519,12.8873115 6.38587182,11.3203081 6.38587182,9.38731148 C6.38587182,7.45431486 7.95287519,5.88731148 9.88587182,5.88731148 C11.8188684,5.88731148 13.3858718,7.45431486 13.3858718,9.38731148 C13.3858718,11.3203081 11.8188684,12.8873115 9.88587182,12.8873115 Z" id="Icon:-Home"></path>
                    </g>
                </g>
            </g>
        </g>
    </g>
</svg>