<?xml version="1.0" encoding="UTF-8"?>
<svg width="16px" height="16px" viewBox="0 0 16 16" version="1.1" xmlns="http://www.w3.org/2000/svg" xmlns:xlink="http://www.w3.org/1999/xlink">
    <!-- Generator: Sketch 55.2 (78181) - https://sketchapp.com -->
    <title>Icon: Joined</title>
    <desc>Created with Sketch.</desc>
    <g id="Desktop" stroke="none" stroke-width="1" fill="none" fill-rule="evenodd">
        <g id="Twitter-Desktop" transform="translate(-175.000000, -716.000000)">
            <g id="Left-Column" transform="translate(174.000000, 302.000000)">
                <g id="Icon:-Joined" transform="translate(1.000000, 414.000000)">
                    <rect id="Rectangle-15" stroke="#657786" x="0.5" y="0.5" width="15" height="15" rx="3"></rect>
                    <path d="M2,0 L14,0 C15.1045695,-2.02906125e-16 16,0.8954305 16,2 L16,3 L0,3 L0,2 C-1.3527075e-16,0.8954305 0.8954305,2.02906125e-16 2,0 Z" id="Rectangle-16" fill="#657786"></path>
                    <rect id="Rectangle-17" fill="#657786" x="3" y="5" width="2" height="2"></rect>
                    <rect id="Rectangle-17" fill="#657786" x="7" y="5" width="2" height="2"></rect>
                    <rect id="Rectangle-17" fill="#657786" x="11" y="5" width="2" height="2"></rect>
                    <rect id="Rectangle-17" fill="#657786" x="11" y="8" width="2" height="2"></rect>
                    <rect id="Rectangle-17" fill="#657786" x="7" y="8" width="2" height="2"></rect>
                    <rect id="Rectangle-17" fill="#657786" x="3" y="8" width="2" height="2"></rect>
                    <rect id="Rectangle-17" fill="#657786" x="3" y="11" width="2" height="2"></rect>
                    <rect id="Rectangle-17" fill="#657786" x="7" y="11" width="2" height="2"></rect>
                </g>
            </g>
        </g>
    </g>
</svg>