<?xml version="1.0" encoding="UTF-8"?>
<svg width="16px" height="17px" viewBox="0 0 16 17" version="1.1" xmlns="http://www.w3.org/2000/svg" xmlns:xlink="http://www.w3.org/1999/xlink">
    <!-- Generator: Sketch 55.2 (78181) - https://sketchapp.com -->
    <title>Icon: Link</title>
    <desc>Created with Sketch.</desc>
    <g id="Desktop" stroke="none" stroke-width="1" fill="none" fill-rule="evenodd" stroke-linecap="round">
        <g id="Twitter-Desktop" transform="translate(-173.000000, -687.000000)" stroke="#657888">
            <g id="Left-Column" transform="translate(174.000000, 302.000000)">
                <g id="Icon:-Link" transform="translate(0.000000, 386.000000)">
                    <path d="M7.3610963,8.78312069 C6.68857778,8.67346552 6.04302222,8.36001724 5.5245037,7.84277586 C4.20798519,6.5295 4.20798519,4.40053448 5.5245037,3.08777586 L7.81583704,0.984672414 C9.13235556,-0.328086207 11.2660593,-0.328086207 12.5820593,0.984672414 C13.8985778,2.29794828 13.8985778,4.42639655 12.5820593,5.73915517 L11.2686519,7.08812069" id="Stroke-1"></path>
                    <path d="M6.43497037,5.41396552 C7.17385926,5.49258621 7.89148889,5.81431034 8.45719259,6.37913793 C9.77371111,7.69241379 9.77371111,9.82137931 8.45719259,11.1341379 L5.75363704,13.8310345 C4.43711852,15.1443103 2.30341481,15.1443103 0.986896296,13.8310345 C-0.329103704,12.5182759 -0.329103704,10.3898276 0.986896296,9.07655172 L2.43874815,7.6287931" id="Stroke-3"></path>
                </g>
            </g>
        </g>
    </g>
</svg>