<?xml version="1.0" encoding="UTF-8"?>
<svg width="21px" height="17px" viewBox="0 0 21 17" version="1.1" xmlns="http://www.w3.org/2000/svg" xmlns:xlink="http://www.w3.org/1999/xlink">
    <!-- Generator: Sketch 55.2 (78181) - https://sketchapp.com -->
    <title>Icon: Twitter Logo</title>
    <desc>Created with Sketch.</desc>
    <g id="Desktop" stroke="none" stroke-width="1" fill="none" fill-rule="evenodd">
        <g id="Twitter-Desktop" transform="translate(-740.000000, -16.000000)" fill="#059FF5">
            <g id="Header">
                <path d="M760.615,17.952 C759.857,18.283 759.041,18.507 758.186,18.608 C759.059,18.092 759.73,17.277 760.046,16.304 C759.228,16.782 758.323,17.128 757.36,17.315 C756.588,16.505 755.489,16 754.273,16 C751.937,16 750.043,17.864 750.043,20.163 C750.043,20.49 750.081,20.807 750.153,21.112 C746.638,20.938 743.521,19.281 741.435,16.762 C741.071,17.377 740.863,18.092 740.863,18.855 C740.863,20.3 741.609,21.574 742.744,22.321 C742.051,22.299 741.399,22.112 740.829,21.8 C740.828,21.817 740.828,21.835 740.828,21.852 C740.828,23.87 742.286,25.552 744.221,25.935 C743.866,26.03 743.492,26.081 743.107,26.081 C742.834,26.081 742.569,26.055 742.311,26.006 C742.849,27.66 744.411,28.864 746.262,28.897 C744.814,30.014 742.991,30.68 741.009,30.68 C740.668,30.68 740.331,30.66 740,30.621 C741.872,31.803 744.095,32.492 746.484,32.492 C754.263,32.492 758.517,26.148 758.517,20.646 C758.517,20.466 758.513,20.286 758.505,20.107 C759.331,19.521 760.048,18.787 760.615,17.952" id="Icon:-Twitter-Logo"></path>
            </g>
        </g>
    </g>
</svg>