<?xml version="1.0" encoding="UTF-8"?>
<svg width="16px" height="14px" viewBox="0 0 16 14" version="1.1" xmlns="http://www.w3.org/2000/svg" xmlns:xlink="http://www.w3.org/1999/xlink">
    <!-- Generator: Sketch 55.2 (78181) - https://sketchapp.com -->
    <title>Icon:  Loves</title>
    <desc>Created with Sketch.</desc>
    <g id="Desktop" stroke="none" stroke-width="1" fill="none" fill-rule="evenodd">
        <g id="Twitter-Desktop" transform="translate(-691.000000, -992.000000)" fill="#E32B51">
            <g id="Middle" transform="translate(455.000000, 492.000000)">
                <g id="Tweet-1" transform="translate(3.000000, 69.000000)">
                    <g id="Actions" transform="translate(74.000000, 430.000000)">
                        <g id="Loves" transform="translate(159.000000, 0.000000)">
                            <path d="M8,15 C4.93454516,12.7467726 3.01574994,11.1280617 2.24361432,10.1438675 C0.332794819,7.70826233 0.584923378,5.66030649 1,4 C1.22382854,3.10468583 1.74624708,2.44231302 3,2 C4.25375292,1.55768698 5.62050949,1.81528658 6,2 C6.4246264,2.20668289 7.07277455,2.8503211 7.94444444,3.93091465 C8.81611434,2.8503211 9.46426249,2.20668289 9.88888889,2 C10.2683794,1.81528658 11.635136,1.55768698 12.8888889,2 C14.1426418,2.44231302 14.6650603,3.10468583 14.8888889,4 C15.3050433,5.6646176 15.5522024,7.71890029 13.6303663,10.1628481 C12.8591084,11.1436361 10.9823197,12.7560201 8,15 Z" id="Icon:--Loves"></path>
                        </g>
                    </g>
                </g>
            </g>
        </g>
    </g>
</svg>