<?xml version="1.0" encoding="UTF-8"?>
<svg width="13px" height="20px" viewBox="0 0 13 20" version="1.1" xmlns="http://www.w3.org/2000/svg" xmlns:xlink="http://www.w3.org/1999/xlink">
    <!-- Generator: Sketch 55.2 (78181) - https://sketchapp.com -->
    <title>Icon: Moments</title>
    <desc>Created with Sketch.</desc>
    <g id="Desktop" stroke="none" stroke-width="1" fill="none" fill-rule="evenodd">
        <g id="Twitter-Desktop" transform="translate(-260.000000, -13.000000)" stroke="#667580" stroke-width="1.5">
            <g id="Moments" transform="translate(261.000000, 14.000000)">
                <path d="M2.19009805,0 L7.20369125,0 C7.47983363,5.50823167e-16 7.70369125,0.223857625 7.70369125,0.5 C7.70369125,0.523659434 7.70201195,0.547289033 7.698666,0.570710678 L6.7801961,7 L10.6575149,7 C10.9336573,7 11.1575149,7.22385763 11.1575149,7.5 C11.1575149,7.62352089 11.1117931,7.74267001 11.029162,7.83448237 L2.7801961,17 L2.7801961,10 L0.390098049,10 C0.113955674,10 -0.109901951,9.77614237 -0.109901951,9.5 C-0.109901951,9.46707401 -0.106649608,9.43422852 -0.100192289,9.40194193 L1.69980771,0.401941932 C1.74655013,0.168229834 1.95175754,-4.5581792e-16 2.19009805,0 Z" id="Icon:-Moments"></path>
            </g>
        </g>
    </g>
</svg>