<?xml version="1.0" encoding="UTF-8"?>
<svg width="18px" height="18px" viewBox="0 0 18 18" version="1.1" xmlns="http://www.w3.org/2000/svg" xmlns:xlink="http://www.w3.org/1999/xlink">
    <!-- Generator: Sketch 55.2 (78181) - https://sketchapp.com -->
    <title>Tick</title>
    <desc>Created with Sketch.</desc>
    <defs>
        <polygon id="path-1" points="18 8.99995909 18 0 0 0 0 8.99995909 0 17.9999182 18 17.9999182 18 8.99995909"></polygon>
    </defs>
    <g id="Desktop" stroke="none" stroke-width="1" fill="none" fill-rule="evenodd">
        <g id="Twitter-Desktop" transform="translate(-361.000000, -531.000000)">
            <g id="Left-Column" transform="translate(174.000000, 302.000000)">
                <g id="Tick" transform="translate(187.000000, 229.000000)">
                    <g transform="translate(0.000000, 0.000082)">
                        <mask id="mask-2" fill="white">
                            <use xlink:href="#path-1"></use>
                        </mask>
                        <g id="Clip-2"></g>
                        <path d="M18,8.99991818 C18,7.74237273 17.4207273,6.6321 16.5280909,5.88182727 C16.6287273,4.72000909 16.2531818,3.52464545 15.3638182,2.6361 C14.4752727,1.74673636 13.2799091,1.37119091 12.1180909,1.47182727 C11.3678182,0.579190909 10.2575455,-8.18181818e-05 9,-8.18181818e-05 C7.74245455,-8.18181818e-05 6.63218182,0.579190909 5.88190909,1.47182727 C4.72009091,1.37119091 3.52472727,1.74673636 2.63618182,2.6361 C1.74681818,3.52464545 1.37127273,4.72000909 1.47190909,5.88182727 C0.579272727,6.6321 0,7.74237273 0,8.99991818 C0,10.2574636 0.579272727,11.3677364 1.47190909,12.1180091 C1.37127273,13.2798273 1.74681818,14.4751909 2.63618182,15.3637364 C3.52472727,16.2531 4.72009091,16.6286455 5.88190909,16.5280091 C6.63218182,17.4206455 7.74245455,17.9999182 9,17.9999182 C10.2575455,17.9999182 11.3678182,17.4206455 12.1180909,16.5280091 C13.2799091,16.6286455 14.4752727,16.2531 15.3638182,15.3637364 C16.2531818,14.4751909 16.6287273,13.2798273 16.5280909,12.1180091 C17.4207273,11.3677364 18,10.2574636 18,8.99991818" id="Fill-1" fill="#86C8FC" mask="url(#mask-2)"></path>
                        <polygon id="Fill-4" fill="#FFFFFF" mask="url(#mask-2)" points="8.15064545 12.9515727 6.39319091 11.3135727 12.2955545 4.98002727 14.0538273 6.61802727"></polygon>
                        <polygon id="Fill-6" fill="#FFFFFF" mask="url(#mask-2)" points="9.67753636 11.2873091 8.16144545 12.9334909 4.06644545 9.16167273 5.58253636 7.51549091"></polygon>
                    </g>
                </g>
            </g>
        </g>
    </g>
</svg>